<svg width="80" height="80" viewBox="0 0 80 80" fill="none" xmlns="http://www.w3.org/2000/svg">
<path d="M66.127 70.945H0V6.88251H80V57.072L66.127 70.945Z" fill="#E6F9FF"/>
<path d="M66.127 57.0722H80V6.88251H40V70.945H66.127V57.0722Z" fill="#CCEFFF"/>
<path d="M80 6.88266H0V21.7264H80V6.88266Z" fill="#EA596E"/>
<path d="M80 6.88266H40V21.7264H80V6.88266Z" fill="#DD2E44"/>
<path d="M65.9375 2.19516H61.25V16.2577H65.9375V2.19516Z" fill="#86D6F2"/>
<path d="M18.75 2.19516H14.0625V16.2577H18.75V2.19516Z" fill="#ACE3FC"/>
<path d="M42.507 60.4249L28.2812 52.195H18.9062L4.68047 60.4249C1.78375 62.1007 0 65.1933 0 68.5399V73.2889C15.153 79.31 32.0345 79.31 47.1875 73.2889V68.5399C47.1875 65.1933 45.4038 62.1007 42.507 60.4249Z" fill="#E6F9FF"/>
<path d="M42.507 60.4249L28.2812 52.195H23.5938V77.8046C31.6023 77.8046 39.6109 76.2993 47.1875 73.2888V68.5397C47.1875 65.1933 45.4038 62.1007 42.507 60.4249Z" fill="#CCEFFF"/>
<path d="M23.5938 61.5702C25.3196 61.5702 26.7188 60.171 26.7188 58.4452C26.7188 56.7193 25.3196 55.3202 23.5938 55.3202C21.8679 55.3202 20.4688 56.7193 20.4688 58.4452C20.4688 60.171 21.8679 61.5702 23.5938 61.5702Z" fill="#DD2E44"/>
<path d="M23.5938 54.5388C18.4161 54.5388 14.2188 50.3414 14.2188 45.1638V35.7888C14.2188 30.6111 18.4161 26.4138 23.5938 26.4138C28.7714 26.4138 32.9688 30.6111 32.9688 35.7888V45.1638C32.9688 50.3416 28.7714 54.5388 23.5938 54.5388Z" fill="#FFE6E6"/>
<path d="M4.68047 60.4249C1.78375 62.1007 0 65.1933 0 68.5399V73.2889C7.57641 76.2994 15.5852 77.8047 23.5938 77.8047L14.08 54.9872L4.68047 60.4249Z" fill="#0C61C6"/>
<path d="M23.5938 26.4138V54.5388C28.7714 54.5388 32.9688 50.3414 32.9688 45.1638V35.7888C32.9688 30.6111 28.7714 26.4138 23.5938 26.4138Z" fill="#FFD2D2"/>
<path d="M23.5938 26.4138C19.8575 26.4138 16.6325 28.5999 15.126 31.7624C16.621 34.758 19.0644 37.1422 22.1444 38.5668C24.1222 39.4814 26.2316 39.9413 28.3491 39.9413C29.9011 39.9413 31.4571 39.6919 32.9686 39.1957V35.7888C32.9688 30.6111 28.7714 26.4138 23.5938 26.4138Z" fill="#FFAB15"/>
<path d="M23.5938 26.4138V39.1474C25.1383 39.6755 26.7412 39.9413 28.3492 39.9413C29.9012 39.9413 31.4572 39.6919 32.9688 39.1957V35.7888C32.9688 30.6111 28.7714 26.4138 23.5938 26.4138Z" fill="#FF9400"/>
<path d="M42.507 60.4249L33.1075 54.9872L23.5938 77.8047C31.6023 77.8047 39.6109 76.2994 47.1875 73.2889V68.5399C47.1875 65.1933 45.4038 62.1007 42.507 60.4249Z" fill="#0A4EAF"/>
</svg>
