<svg width="80" height="80" viewBox="0 0 80 80" fill="none" xmlns="http://www.w3.org/2000/svg">
<g clip-path="url(#clip0)">
<path d="M77.2414 4.13794H2.75862C1.23508 4.13794 0 5.37302 0 6.89656V71.7241C0 73.2477 1.23508 74.4828 2.75862 74.4828H77.2414C78.7649 74.4828 80 73.2477 80 71.7241V6.89656C80 5.37302 78.7649 4.13794 77.2414 4.13794Z" fill="#ECF0F1"/>
<path d="M80 6.89656V16.5517H0V6.89656C0.00454455 5.3749 1.23696 4.14248 2.75862 4.13794H77.2414C78.763 4.14248 79.9955 5.3749 80 6.89656Z" fill="#E64C3C"/>
<path d="M21.9449 28.3862C22.0285 28.1278 22.0704 27.8578 22.0691 27.5862V24.8276C22.0645 23.3059 20.8321 22.0735 19.3104 22.069H8.27595C6.7543 22.0735 5.52188 23.3059 5.51733 24.8276V27.5862C5.52188 29.1079 6.7543 30.3403 8.27595 30.3448H19.3104C19.4677 30.3454 19.6247 30.3315 19.7794 30.3035L21.9449 28.3862Z" fill="#95A5A5"/>
<path d="M60.2208 30.3035C60.3756 30.3315 60.5325 30.3454 60.6898 30.3448H71.7243C73.2459 30.3403 74.4784 29.1079 74.4829 27.5862V24.8276C74.4784 23.3059 73.2459 22.0735 71.7243 22.069H60.6898C59.1681 22.0735 57.9357 23.3059 57.9312 24.8276V27.5862C57.9298 27.8578 57.9717 28.1278 58.0553 28.3862L60.2208 30.3035Z" fill="#95A5A5"/>
<path d="M11.076 49.6552H8.27596C6.7543 49.6506 5.52188 48.4182 5.51733 46.8965V44.1379C5.52188 42.6163 6.7543 41.3838 8.27596 41.3793H12.6898L11.076 49.6552Z" fill="#95A5A5"/>
<path d="M68.9243 49.6552H71.7243C73.246 49.6506 74.4784 48.4182 74.483 46.8965V44.1379C74.4784 42.6163 73.246 41.3838 71.7243 41.3793H67.3105L68.9243 49.6552Z" fill="#95A5A5"/>
<path d="M12.6897 60.6897H8.27595C6.7543 60.6942 5.52188 61.9266 5.51733 63.4483V66.2069C5.52188 67.7286 6.7543 68.961 8.27595 68.9655H17.2553L12.6897 60.6897Z" fill="#95A5A5"/>
<path d="M67.3104 60.6897H71.7242C73.2458 60.6942 74.4783 61.9266 74.4828 63.4483V66.2069C74.4783 67.7286 73.2458 68.961 71.7242 68.9655H62.7449L67.3104 60.6897Z" fill="#95A5A5"/>
<path d="M12.414 2.75862C12.414 1.23508 11.1789 0 9.65535 0C8.1318 0 6.89673 1.23508 6.89673 2.75862V8.27586C6.89673 9.79941 8.1318 11.0345 9.65535 11.0345C11.1789 11.0345 12.414 9.79941 12.414 8.27586V2.75862Z" fill="#95A5A5"/>
<path d="M31.7243 2.75862C31.7243 1.23508 30.4892 0 28.9657 0C27.4421 0 26.207 1.23508 26.207 2.75862V8.27586C26.207 9.79941 27.4421 11.0345 28.9657 11.0345C30.4892 11.0345 31.7243 9.79941 31.7243 8.27586V2.75862Z" fill="#95A5A5"/>
<path d="M53.7931 2.75862C53.7931 1.23508 52.5581 0 51.0345 0C49.511 0 48.2759 1.23508 48.2759 2.75862V8.27586C48.2759 9.79941 49.511 11.0345 51.0345 11.0345C52.5581 11.0345 53.7931 9.79941 53.7931 8.27586V2.75862Z" fill="#95A5A5"/>
<path d="M73.1037 2.75862C73.1037 1.23508 71.8686 0 70.3451 0C68.8215 0 67.5864 1.23508 67.5864 2.75862V8.27586C67.5864 9.79941 68.8215 11.0345 70.3451 11.0345C71.8686 11.0345 73.1037 9.79941 73.1037 8.27586V2.75862Z" fill="#95A5A5"/>
<path d="M39.9999 80C55.9972 80 68.9655 67.0317 68.9655 51.0345C68.9655 35.0373 55.9972 22.069 39.9999 22.069C24.0027 22.069 11.0344 35.0373 11.0344 51.0345C11.0344 67.0317 24.0027 80 39.9999 80Z" fill="#35495E"/>
<path d="M40.0001 55.1724C43.8089 55.1724 46.8966 52.0847 46.8966 48.2758C46.8966 44.467 43.8089 41.3793 40.0001 41.3793C36.1912 41.3793 33.1035 44.467 33.1035 48.2758C33.1035 52.0847 36.1912 55.1724 40.0001 55.1724Z" fill="#FDD7AD"/>
<path d="M22.069 55.1724C25.1161 55.1724 27.5862 52.7023 27.5862 49.6552C27.5862 46.6081 25.1161 44.1379 22.069 44.1379C19.0219 44.1379 16.5518 46.6081 16.5518 49.6552C16.5518 52.7023 19.0219 55.1724 22.069 55.1724Z" fill="#FDD7AD"/>
<path d="M57.9311 55.1724C60.9781 55.1724 63.4483 52.7023 63.4483 49.6552C63.4483 46.6081 60.9781 44.1379 57.9311 44.1379C54.884 44.1379 52.4138 46.6081 52.4138 49.6552C52.4138 52.7023 54.884 55.1724 57.9311 55.1724Z" fill="#FDD7AD"/>
<path d="M55.1725 64.8276V75.7103C45.8661 81.43 34.134 81.43 24.8277 75.7103V64.8276C24.8199 61.0976 26.9705 57.6997 30.3449 56.1103C31.6352 55.4877 33.0502 55.167 34.4828 55.1724H45.5173C46.9499 55.167 48.365 55.4877 49.6553 56.1103C53.0297 57.6997 55.1802 61.0976 55.1725 64.8276Z" fill="#3B97D3"/>
<path d="M30.3448 56.1103C26.9704 57.6997 24.8198 61.0976 24.8276 64.8276V75.7103C18.1801 71.6274 13.4646 65.0316 11.7517 57.4207C13.48 55.9627 15.6699 55.1659 17.931 55.1724H26.2069C27.6395 55.167 29.0545 55.4877 30.3448 56.1103Z" fill="#2980BA"/>
<path d="M68.2484 57.4207C66.5355 65.0316 61.82 71.6274 55.1725 75.7103V64.8276C55.1802 61.0976 53.0297 57.6997 49.6553 56.1103C50.9455 55.4877 52.3606 55.167 53.7932 55.1724H62.0691C64.3302 55.1659 66.5201 55.9627 68.2484 57.4207Z" fill="#2980BA"/>
</g>
<defs>
<clipPath id="clip0">
<rect width="80" height="80" fill="white"/>
</clipPath>
</defs>
</svg>
