<svg width="80" height="80" viewBox="0 0 80 80" fill="none" xmlns="http://www.w3.org/2000/svg">
<path d="M60.6156 80H4.77172C2.14281 80 0.0117188 77.8689 0.0117188 75.24V36.892H65.3758V75.24C65.3758 77.8689 63.2445 80 60.6156 80Z" fill="#C8EFFE"/>
<path d="M58.9878 36.892H59.7217V75.24C59.7217 77.8689 57.5906 80 54.9617 80H60.6157C63.2446 80 65.3757 77.8689 65.3757 75.24V36.892H58.9878Z" fill="#B3DAFE"/>
<path d="M60.6156 19.7861H4.77172C2.14281 19.7861 0.0117188 21.9172 0.0117188 24.5461V36.892H61.5422V19.8769C61.2425 19.8178 60.9328 19.7861 60.6156 19.7861Z" fill="#E94444"/>
<path d="M28.6414 53.7625H21.6889C21.1555 53.7625 20.7231 53.3302 20.7231 52.7967V45.8442C20.7231 45.3108 21.1555 44.8784 21.6889 44.8784H28.6414C29.1749 44.8784 29.6072 45.3108 29.6072 45.8442V52.7967C29.6072 53.33 29.1749 53.7625 28.6414 53.7625Z" fill="#8AC9FE"/>
<path d="M43.6986 53.7625H36.7461C36.2126 53.7625 35.7803 53.3302 35.7803 52.7967V45.8442C35.7803 45.3108 36.2126 44.8784 36.7461 44.8784H43.6986C44.232 44.8784 44.6643 45.3108 44.6643 45.8442V52.7967C44.6643 53.33 44.232 53.7625 43.6986 53.7625Z" fill="#8AC9FE"/>
<path d="M28.6414 72.0137H21.6889C21.1555 72.0137 20.7231 71.5814 20.7231 71.048V64.0953C20.7231 63.5619 21.1555 63.1295 21.6889 63.1295H28.6414C29.1749 63.1295 29.6072 63.5619 29.6072 64.0953V71.0478C29.6072 71.5812 29.1749 72.0137 28.6414 72.0137Z" fill="#EE6161"/>
<path d="M13.5841 72.0137H6.63155C6.09812 72.0137 5.66577 71.5814 5.66577 71.048V64.0953C5.66577 63.5619 6.09812 63.1295 6.63155 63.1295H13.5841C14.1175 63.1295 14.5498 63.5619 14.5498 64.0953V71.0478C14.5498 71.5812 14.1175 72.0137 13.5841 72.0137Z" fill="#8AC9FE"/>
<path d="M43.6986 72.0137H36.7461C36.2126 72.0137 35.7803 71.5814 35.7803 71.048V64.0953C35.7803 63.5619 36.2126 63.1295 36.7461 63.1295H43.6986C44.232 63.1295 44.6643 63.5619 44.6643 64.0953V71.0478C44.6643 71.5812 44.232 72.0137 43.6986 72.0137Z" fill="#EE6161"/>
<path d="M78.5827 14.4933H75.5471C75.2342 13.3823 74.792 12.3255 74.2388 11.3394L76.3868 9.19156C76.9357 8.64266 76.9357 7.75281 76.3868 7.20391L72.7843 3.60156C72.2354 3.05266 71.3456 3.05266 70.7968 3.60156L68.649 5.74938C67.6629 5.19625 66.6062 4.75406 65.4951 4.44109V1.40547C65.4951 0.629219 64.8659 0 64.0896 0H58.9951C58.2188 0 57.5896 0.629219 57.5896 1.40547V4.44125C56.4785 4.75422 55.4218 5.19641 54.4357 5.74953L52.2878 3.60156C51.7388 3.05266 50.849 3.05266 50.3003 3.60156L46.6978 7.20391C46.1488 7.75281 46.1488 8.64266 46.6978 9.19156L48.8456 11.3394C48.2924 12.3255 47.8503 13.3822 47.5373 14.4933H44.5017C43.7254 14.4933 43.0962 15.1225 43.0962 15.8988V20.9933C43.0962 21.7695 43.7254 22.3988 44.5017 22.3988H47.5373C47.8503 23.5098 48.2924 24.5666 48.8456 25.5527L46.6978 27.7006C46.1488 28.2494 46.1488 29.1394 46.6978 29.6881L50.3003 33.2906C50.8492 33.8394 51.739 33.8394 52.2878 33.2906L54.4356 31.1427C55.4217 31.6958 56.4784 32.138 57.5895 32.4509V35.4866C57.5895 36.2628 58.2187 36.892 58.9949 36.892H64.0895C64.8657 36.892 65.4949 36.2628 65.4949 35.4866V32.4509C66.606 32.138 67.6628 31.6958 68.6488 31.1427L70.7967 33.2906C71.3456 33.8394 72.2354 33.8394 72.7842 33.2906L76.3867 29.6881C76.9356 29.1394 76.9356 28.2494 76.3867 27.7006L74.2387 25.5527C74.7918 24.5666 75.234 23.5098 75.547 22.3988H78.5826C79.3588 22.3988 79.9881 21.7695 79.9881 20.9933V15.8988C79.9882 15.1225 79.359 14.4933 78.5827 14.4933Z" fill="#537983"/>
<path d="M61.5423 27.6659C66.6343 27.6659 70.7623 23.538 70.7623 18.4459C70.7623 13.3539 66.6343 9.22594 61.5423 9.22594C56.4502 9.22594 52.3223 13.3539 52.3223 18.4459C52.3223 23.538 56.4502 27.6659 61.5423 27.6659Z" fill="#C8EFFE"/>
<path d="M64.5071 19.6533H61.5421C60.8753 19.6533 60.335 19.1128 60.335 18.4461V14.2992C60.335 13.6325 60.8754 13.092 61.5421 13.092C62.209 13.092 62.7493 13.6325 62.7493 14.2992V17.2389H64.507C65.1739 17.2389 65.7142 17.7794 65.7142 18.4461C65.7142 19.1128 65.174 19.6533 64.5071 19.6533Z" fill="#0268B4"/>
<path d="M60.9321 1.40531V4.44109C62.0432 4.75406 63.0999 5.19609 64.086 5.74938L65.4949 4.34047V1.40531C65.4949 0.629219 64.8657 0 64.0894 0H59.5266C60.3029 0 60.9321 0.629219 60.9321 1.40531Z" fill="#3E5959"/>
<path d="M78.5828 14.4933H75.5472C75.2342 13.3822 74.792 12.3255 74.2389 11.3394L76.3868 9.19156C76.9358 8.64265 76.9358 7.75281 76.3868 7.2039L72.7843 3.60156C72.2354 3.05265 71.3456 3.05265 70.7968 3.60156L69.5092 4.88922L71.824 7.2039C72.3729 7.75281 72.3729 8.64265 71.824 9.19156L69.6762 11.3394C70.2293 12.3255 70.6715 13.3822 70.9845 14.4933H74.0203C74.7965 14.4933 75.4256 15.1225 75.4256 15.8986V20.9933C75.4256 21.7695 74.7964 22.3986 74.0203 22.3986H70.9843C70.6714 23.5097 70.2292 24.5664 69.6761 25.5525L71.8239 27.7005C72.3728 28.2492 72.3728 29.1391 71.8239 29.688L69.509 32.0028L70.7967 33.2905C71.3456 33.8394 72.2354 33.8394 72.7842 33.2905L76.3867 29.688C76.9356 29.1391 76.9356 28.2492 76.3867 27.7005L74.2387 25.5525C74.7918 24.5664 75.234 23.5097 75.547 22.3986H78.5826C79.3589 22.3986 79.9879 21.7694 79.9879 20.9933V15.8986C79.9883 15.1225 79.359 14.4933 78.5828 14.4933Z" fill="#3E5959"/>
<path d="M58.7559 53.7625H51.8034C51.27 53.7625 50.8376 53.3302 50.8376 52.7967V45.8442C50.8376 45.3108 51.27 44.8784 51.8034 44.8784H58.7559C59.2894 44.8784 59.7217 45.3108 59.7217 45.8442V52.7967C59.7217 53.33 59.2894 53.7625 58.7559 53.7625Z" fill="#8AC9FE"/>
<path d="M58.7559 72.0137H51.8034C51.27 72.0137 50.8376 71.5814 50.8376 71.048V64.0953C50.8376 63.5619 51.27 63.1295 51.8034 63.1295H58.7559C59.2894 63.1295 59.7217 63.5619 59.7217 64.0953V71.0478C59.7217 71.5812 59.2894 72.0137 58.7559 72.0137Z" fill="#EE6161"/>
<path d="M39.293 12.3934C37.6609 12.6166 36.4023 14.0123 36.4023 15.7056V25.672C36.4023 27.3653 37.6609 28.7612 39.293 28.9842C40.925 28.7611 42.1836 27.3653 42.1836 25.672V15.7056C42.1836 14.0125 40.925 12.6166 39.293 12.3934Z" fill="#F79595"/>
<path d="M8.05445 12.3934C6.42241 12.6166 5.16382 14.0123 5.16382 15.7056V25.672C5.16382 27.3653 6.42241 28.7612 8.05445 28.9842C9.68648 28.7611 10.9451 27.3653 10.9451 25.672V15.7056C10.9451 14.0125 9.68648 12.6166 8.05445 12.3934Z" fill="#F79595"/>
<path d="M23.6738 12.3934C22.0418 12.6166 20.7832 14.0123 20.7832 15.7056V25.672C20.7832 27.3653 22.0418 28.7612 23.6738 28.9842C25.3059 28.7611 26.5645 27.3653 26.5645 25.672V15.7056C26.5645 14.0125 25.3057 12.6166 23.6738 12.3934Z" fill="#F79595"/>
<path d="M39.7495 12.3587C39.0756 12.3587 38.4495 12.5597 37.9243 12.9023C38.8398 13.4995 39.446 14.5311 39.446 15.7058V25.6722C39.446 26.8469 38.8398 27.8783 37.9243 28.4756C38.4495 28.8183 39.0756 29.0191 39.7495 29.0191C41.5979 29.0191 43.0963 27.5206 43.0963 25.6722V15.7058C43.0963 13.8573 41.5979 12.3587 39.7495 12.3587Z" fill="#F47C7C"/>
<path d="M8.5107 12.3587C7.8368 12.3587 7.2107 12.5597 6.68555 12.9023C7.60102 13.4995 8.20727 14.5311 8.20727 15.7058V25.6722C8.20727 26.8469 7.60102 27.8783 6.68555 28.4756C7.2107 28.8183 7.8368 29.0191 8.5107 29.0191C10.3591 29.0191 11.8576 27.5206 11.8576 25.6722V15.7058C11.8577 13.8573 10.3593 12.3587 8.5107 12.3587Z" fill="#F47C7C"/>
<path d="M24.1301 12.3587C23.4562 12.3587 22.8301 12.5597 22.3049 12.9023C23.2204 13.4995 23.8267 14.5311 23.8267 15.7058V25.6722C23.8267 26.8469 23.2204 27.8783 22.3049 28.4756C22.8301 28.8183 23.4562 29.0191 24.1301 29.0191C25.9785 29.0191 27.477 27.5206 27.477 25.6722V15.7058C27.477 13.8573 25.9785 12.3587 24.1301 12.3587Z" fill="#F47C7C"/>
</svg>
