<svg width="85" height="85" viewBox="0 0 85 85" fill="none" xmlns="http://www.w3.org/2000/svg">
<path d="M79.1379 73.3911H0V79.2531C0.0050091 80.8697 1.31453 82.1792 2.93103 82.1842H82.069C83.6855 82.1792 84.995 80.8697 85 79.2531V73.3911H79.1379Z" fill="#ACABB1"/>
<path d="M73.2758 17.7014H11.7241C8.48682 17.7014 5.86206 20.3255 5.86206 23.5635V73.3911H79.1379V23.5635C79.1379 20.3255 76.5132 17.7014 73.2758 17.7014Z" fill="#78B9EB"/>
<path d="M84.9999 19.1669C84.9999 28.0695 77.7825 35.2876 68.8792 35.2876C59.9759 35.2876 52.7585 28.0695 52.7585 19.1669C52.7585 18.6682 52.7879 18.1844 52.8315 17.7014C53.6494 9.14876 61.0307 2.73998 69.6127 3.13069C78.1954 3.52211 84.9634 10.5749 84.9999 19.1669Z" fill="#FFA733"/>
<path d="M71.4146 17.7014C70.6768 16.4291 69.1097 15.9003 67.7522 16.4663C66.3948 17.0316 65.6663 18.5157 66.0498 19.9362C66.4327 21.3559 67.8095 22.2719 69.2671 22.0772C70.7248 21.8826 71.8132 20.6375 71.8103 19.1669C71.8096 18.6517 71.6729 18.1465 71.4146 17.7014Z" fill="#FF5023"/>
<path d="M5.86207 33.8221H0V49.9428C0 50.7521 0.656191 51.4083 1.46552 51.4083H27.8448C28.6542 51.4083 29.3103 50.7521 29.3103 49.9428V33.8221H5.86207Z" fill="#FFA733"/>
<path d="M27.8448 27.96H1.46552C0.656191 27.96 0 28.6162 0 29.4255V33.8221H29.3103V29.4255C29.3103 28.6162 28.6542 27.96 27.8448 27.96Z" fill="#FF5023"/>
<path d="M60.0861 51.4083C60.0861 57.0736 55.4935 61.6669 49.8275 61.6669C44.1615 61.6669 39.5688 57.0736 39.5688 51.4083C39.5688 45.7423 44.1615 41.1497 49.8275 41.1497C55.4935 41.1497 60.0861 45.7423 60.0861 51.4083Z" fill="#FFD422"/>
<path d="M49.8275 73.3911V76.3221C49.8275 77.1314 49.1713 77.7876 48.362 77.7876H36.6379C35.8286 77.7876 35.1724 77.1314 35.1724 76.3221V73.3911H49.8275Z" fill="#898890"/>
<path d="M67.4138 8.90833H70.3449V16.2359H67.4138V8.90833Z" fill="#FF6243"/>
<path d="M60.0862 17.7014H65.9482V20.6325H60.0862V17.7014Z" fill="#FF6243"/>
<path d="M19.0518 25.029H21.9828V30.8911H19.0518V25.029Z" fill="#FF9811"/>
<path d="M7.32764 25.029H10.2587V30.8911H7.32764V25.029Z" fill="#FF9811"/>
<path d="M4.39648 38.2187H7.32752V41.1497H4.39648V38.2187Z" fill="#CC7400"/>
<path d="M10.2585 38.2187H13.1896V41.1497H10.2585V38.2187Z" fill="#CC7400"/>
<path d="M16.1206 38.2187H19.0516V41.1497H16.1206V38.2187Z" fill="#CC7400"/>
<path d="M21.9827 38.2187H24.9137V41.1497H21.9827V38.2187Z" fill="#CC7400"/>
<path d="M4.39648 44.0807H7.32752V47.0118H4.39648V44.0807Z" fill="#CC7400"/>
<path d="M10.2585 44.0807H13.1896V47.0118H10.2585V44.0807Z" fill="#CC7400"/>
<path d="M16.1206 44.0807H19.0516V47.0118H16.1206V44.0807Z" fill="#CC7400"/>
<path d="M21.9827 44.0807H24.9137V47.0118H21.9827V44.0807Z" fill="#CC7400"/>
<path d="M13.1897 66.0635H71.8104V68.9945H13.1897V66.0635Z" fill="#1E81CE"/>
<path d="M48.362 55.8049C47.9734 55.8041 47.6006 55.6503 47.3258 55.3755L44.3948 52.4445L46.4671 50.3721L48.362 52.267L53.1879 47.4411L55.2602 49.5134L49.3981 55.3755C49.1234 55.6503 48.7505 55.8041 48.362 55.8049Z" fill="#ED1C24"/>
<path d="M27.8449 63.1325H16.1208C15.3115 63.1325 14.6553 62.4763 14.6553 61.6669V55.8049H17.5863V60.2014H27.8449V63.1325Z" fill="#FFA733"/>
<path d="M30.7759 60.2014H33.7069V63.1325H30.7759V60.2014Z" fill="#FFA733"/>
<path d="M36.6379 60.2014H39.569V63.1325H36.6379V60.2014Z" fill="#FFA733"/>
<path d="M68.8792 52.8738H64.4827V49.9428H67.4137V39.6842H70.3447V51.4083C70.3447 52.2176 69.6886 52.8738 68.8792 52.8738Z" fill="#FFA733"/>
<path d="M36.6379 30.8911H39.569V33.8221H36.6379V30.8911Z" fill="#1E81CE"/>
<path d="M42.5 30.8911H45.431V33.8221H42.5V30.8911Z" fill="#1E81CE"/>
<path d="M48.3621 30.8911H51.2931V33.8221H48.3621V30.8911Z" fill="#1E81CE"/>
<path d="M68.8792 23.5635C66.4512 23.5635 64.4827 21.5949 64.4827 19.1669C64.4827 16.7382 66.4512 14.7704 68.8792 14.7704C71.3072 14.7704 73.2758 16.7382 73.2758 19.1669C73.2758 21.5949 71.3072 23.5635 68.8792 23.5635ZM68.8792 17.7014C68.0699 17.7014 67.4137 18.3576 67.4137 19.1669C67.4137 19.9763 68.0699 20.6325 68.8792 20.6325C69.6885 20.6325 70.3447 19.9763 70.3447 19.1669C70.3447 18.3576 69.6885 17.7014 68.8792 17.7014Z" fill="#ED1C24"/>
</svg>
