<svg width="19" height="18" viewBox="0 0 19 18" fill="none" xmlns="http://www.w3.org/2000/svg">
<path d="M14.3001 7.58688C14.3001 7.58688 15.0415 7.03678 14.4771 6.48668C13.9128 5.93658 13.3641 6.64646 13.3641 6.64646L7.69067 12.1834C7.69067 12.1834 6.3619 13.8567 5.35158 12.8449C4.34246 11.832 6.02895 10.562 6.02895 10.562L13.468 3.30401C13.468 3.30401 15.2041 1.43792 16.8362 3.02926C18.4659 4.62118 16.548 6.31865 16.548 6.31865L8.18919 14.4746C8.18919 14.4746 5.51473 17.4892 3.03906 15.073C0.563402 12.6569 3.68321 10.0768 3.68321 10.0768L10.0292 3.883C10.0292 3.883 10.7398 3.30401 10.2074 2.78281C9.67265 2.26219 9.08048 2.95674 9.08048 2.95674L1.79851 10.062C1.79851 10.062 -0.950275 13.0035 2.11938 15.9981C5.18903 18.9945 8.20551 16.3124 8.20551 16.3124L18.2139 6.54564C18.2139 6.54564 20.2164 4.39065 17.829 2.05995C15.4415 -0.270741 13.2324 1.6832 13.2324 1.6832L4.62042 10.085C4.62042 10.085 2.41486 11.8355 4.41618 13.7871C6.41749 15.7411 8.17892 13.5572 8.17892 13.5572L14.3001 7.58688Z" fill="#9DADBB"/>
</svg>
