<svg width="80" height="80" viewBox="0 0 80 80" fill="none" xmlns="http://www.w3.org/2000/svg">
<path d="M71.2088 17.1428L62.4177 11.8681L65.9341 69.8902H71.2088V17.1428Z" fill="#ABECEC"/>
<path d="M0.000244141 17.1428V69.8902H65.9342V11.8681L0.000244141 17.1428Z" fill="#D5F6F5"/>
<path d="M58.0221 29.0109H13.1869C12.4586 29.0109 11.8682 29.6014 11.8682 30.3297V56.7033C11.8682 57.4316 12.4586 58.022 13.1869 58.022H59.3407V30.3297C59.3407 29.6014 58.7505 29.0109 58.0221 29.0109ZM41.7583 31.6483V42.1977H29.4507V31.6483H41.7583ZM26.8132 31.6483V42.1977H14.5055V31.6483H26.8132ZM14.5055 55.3847V44.8353H26.8132V55.3847H14.5055ZM29.4507 55.3847V44.8353H41.7583V55.3847H29.4507ZM56.7033 55.3847H44.3957V44.8353H56.7033V55.3847ZM44.3957 42.1978V31.6484H56.7033V42.1978H44.3957Z" fill="#42C8C6"/>
<path d="M71.2088 1.31874H65.9341L60.6594 11.8681L65.9341 17.1428H71.2088V1.31874Z" fill="#FE5F1A"/>
<path d="M0 1.31874V17.143H65.9341V1.31874H0ZM13.1869 11.8681C11.7303 11.8681 10.5495 10.6873 10.5495 9.23077C10.5495 7.77421 11.7303 6.59343 13.1869 6.59343C14.6434 6.59343 15.8242 7.77421 15.8242 9.23077C15.8242 10.6873 14.6433 11.8681 13.1869 11.8681ZM58.022 11.8681C56.5655 11.8681 55.3847 10.6873 55.3847 9.23077C55.3847 7.77421 56.5655 6.59343 58.022 6.59343C59.4786 6.59343 60.6594 7.77421 60.6594 9.23077C60.6594 10.6873 59.4784 11.8681 58.022 11.8681Z" fill="#FE834D"/>
<path d="M62.4177 43.5164V78.6812C72.1283 78.6812 80.0001 70.8097 80.0001 61.0989C80.0001 51.3881 72.1283 43.5164 62.4177 43.5164Z" fill="#02ACAB"/>
<path d="M62.4175 43.5164C69.2149 43.5164 74.7252 51.3881 74.7252 61.0987C74.7252 70.8094 69.2149 78.6812 62.4175 78.6812C52.7068 78.6812 44.8352 70.8095 44.8352 61.0989C44.8352 51.3883 52.7068 43.5164 62.4175 43.5164Z" fill="#42C8C6"/>
<path d="M71.2089 58.4616H65.055V52.3077C65.055 50.8511 63.8742 49.6703 62.4176 49.6703C60.961 49.6703 59.7803 50.8511 59.7803 52.3077V58.4616H53.6264C52.1698 58.4616 50.989 59.6423 50.989 61.0989C50.989 62.5555 52.1698 63.7363 53.6264 63.7363H59.7803V69.8902C59.7803 71.3467 60.961 72.5275 62.4176 72.5275C63.8742 72.5275 65.055 71.3467 65.055 69.8902V63.7363H71.2089C72.6654 63.7363 73.8462 62.5555 73.8462 61.0989C73.8462 59.6423 72.6654 58.4616 71.2089 58.4616Z" fill="white"/>
</svg>
