<svg width="80" height="80" viewBox="0 0 80 80" fill="none" xmlns="http://www.w3.org/2000/svg">
<path d="M80 40C80 62.0917 62.0917 80 40 80C17.9083 80 0 62.0917 0 40C0 17.9083 17.9083 0 40 0C62.0917 0 80 17.9083 80 40Z" fill="url(#paint0_linear)"/>
<path d="M52.9779 49.9244V32.8755C52.9779 24.6272 46.806 17.7119 38.8391 16.562V11.4033H34.1516V16.562C26.1853 17.7113 20.014 24.6272 20.014 32.8755V47.8456C20.014 50.5439 18.7134 52.1547 16.5356 52.1547H14.1919V58.506H30.9125C30.8563 58.8252 30.8252 59.1536 30.8252 59.4886C30.8252 62.6155 33.3691 65.1588 36.4954 65.1588C39.6222 65.1588 42.1661 62.6155 42.1661 59.4886C42.1661 59.1536 42.135 58.8252 42.0789 58.506H46.0596V53.8185H22.8479C24.0259 52.2749 24.7009 50.2211 24.7009 47.8456V32.8755C24.7009 26.4637 29.9127 21.1763 36.3208 21.0823H36.6699C43.0786 21.1769 48.2898 26.4637 48.2898 32.8755V49.9244H52.9779ZM37.4786 59.4886C37.4786 60.0306 37.0374 60.4713 36.4954 60.4713C35.9534 60.4713 35.5127 60.0306 35.5127 59.4886C35.5127 58.9467 35.9534 58.506 36.4954 58.506C37.0374 58.506 37.4786 58.9467 37.4786 59.4886Z" fill="white"/>
<path d="M67.6831 53.8185H61.2946V47.4299H56.6071V53.8185H50.2179V58.506H56.6071V64.8945H61.2946V58.506H67.6831V53.8185Z" fill="white"/>
<defs>
<linearGradient id="paint0_linear" x1="0" y1="40" x2="80" y2="40" gradientUnits="userSpaceOnUse">
<stop stop-color="#00F38D"/>
<stop offset="1" stop-color="#009EFF"/>
</linearGradient>
</defs>
</svg>
