<svg width="80" height="80" viewBox="0 0 80 80" fill="none" xmlns="http://www.w3.org/2000/svg">
<g clip-path="url(#clip0)">
<path d="M40 80C62.0914 80 80 62.0914 80 40C80 17.9086 62.0914 0 40 0C17.9086 0 0 17.9086 0 40C0 62.0914 17.9086 80 40 80Z" fill="#FFDD54"/>
<path d="M80 40C80 35.1877 79.1495 30.5741 77.5918 26.3006L67.8993 16.6081L62.4017 17.9592L55.332 10.8633L50.4559 18.3492L38.0962 19.1827L30.1237 11.2462L12.1006 65.6509L22.354 75.9044C27.677 78.5255 33.6659 80 40 80C62.0914 80 80 62.0914 80 40Z" fill="#ECBE00"/>
<path d="M37.5614 37.9863V44.7249H30.8228V37.9863H37.5614Z" fill="#DAEAEC"/>
<path d="M65.569 59.9656V65.3966C65.569 66.5964 64.5963 67.569 63.3965 67.569H15.6034C14.4037 67.569 13.431 66.5964 13.431 65.3966V59.9656H65.569Z" fill="#BDC3C7"/>
<path d="M65.569 15.4312V21.9484H13.431V15.4312C13.4346 14.2329 14.4051 13.2624 15.6034 13.2588H63.3965C64.5948 13.2624 65.5654 14.2329 65.569 15.4312Z" fill="#E64C3C"/>
<path d="M65.569 21.9482V59.9655C65.5654 61.1638 64.5948 62.1343 63.3965 62.1379H15.6034C14.4051 62.1343 13.4346 61.1638 13.431 59.9655V21.9482H65.569Z" fill="#ECF0F1"/>
<path d="M36.2414 12.1724C36.2414 10.9726 35.2688 10 34.069 10C32.8692 10 31.8966 10.9726 31.8966 12.1724V15.431C31.8966 16.6308 32.8692 17.6034 34.069 17.6034C35.2688 17.6034 36.2414 16.6308 36.2414 15.431V12.1724Z" fill="#95A5A5"/>
<path d="M25.3794 12.1724C25.3794 10.9726 24.4067 10 23.207 10C22.0072 10 21.0345 10.9726 21.0345 12.1724V15.431C21.0345 16.6308 22.0072 17.6034 23.207 17.6034C24.4067 17.6034 25.3794 16.6308 25.3794 15.431V12.1724Z" fill="#95A5A5"/>
<path d="M47.1035 12.1724C47.1035 10.9726 46.1309 10 44.9311 10C43.7313 10 42.7587 10.9726 42.7587 12.1724V15.431C42.7587 16.6308 43.7313 17.6034 44.9311 17.6034C46.1309 17.6034 47.1035 16.6308 47.1035 15.431V12.1724Z" fill="#95A5A5"/>
<path d="M57.9656 12.1724C57.9656 10.9726 56.9929 10 55.7931 10C54.5934 10 53.6207 10.9726 53.6207 12.1724V15.431C53.6207 16.6308 54.5934 17.6034 55.7931 17.6034C56.9929 17.6034 57.9656 16.6308 57.9656 15.431V12.1724Z" fill="#95A5A5"/>
<path d="M40.0279 54.3053L46.9513 57.5531C47.765 57.9366 48.7225 57.8492 49.4533 57.3248C50.1841 56.8004 50.5735 55.9212 50.4707 55.0276L49.5495 47.2754C49.5076 46.9193 49.6226 46.5625 49.8645 46.2978L55.1413 40.5409C55.7439 39.8826 55.9443 38.9504 55.6656 38.1027C55.3868 37.2549 54.6723 36.6236 53.7966 36.4513L46.2344 34.9448C45.8759 34.8736 45.567 34.6479 45.3905 34.3278L41.6724 27.5759C41.2345 26.7864 40.4028 26.2966 39.5 26.2966C38.5972 26.2966 37.7654 26.7864 37.3276 27.5759L33.6073 34.3311C33.4307 34.6511 33.1219 34.8769 32.7633 34.948L25.2022 36.4546C24.3281 36.6278 23.6151 37.2587 23.3367 38.1053C23.0584 38.9518 23.2578 39.8827 23.8586 40.5409L29.1354 46.2978C29.3773 46.5625 29.4923 46.9193 29.4504 47.2754L28.5293 55.0276C28.4262 55.9215 28.8157 56.8011 29.5469 57.3256C30.278 57.8501 31.2359 57.9371 32.0497 57.5531L38.9732 54.3053C39.3074 54.1492 39.6936 54.1492 40.0279 54.3053Z" fill="#00CDCD"/>
<path d="M33.3955 44.2666C33.118 44.2667 32.851 44.1606 32.6493 43.9701L30.8624 42.2821C30.282 41.7341 30.0488 40.9119 30.2552 40.1407C30.4616 39.3696 31.0743 38.7738 31.8509 38.589L35.4126 37.7396L37.5969 33.8368C37.7844 33.4969 38.1389 33.2828 38.527 33.2751C38.9152 33.2675 39.2779 33.4675 39.4785 33.7998C39.6792 34.132 39.6874 34.5462 39.5 34.8861L37.3558 38.7845C37.048 39.3466 36.5078 39.7441 35.8796 39.8707L32.3549 40.7114L34.1406 42.3994C34.464 42.7048 34.5685 43.1766 34.4043 43.5901C34.24 44.0035 33.8403 44.275 33.3955 44.2753V44.2666Z" fill="white"/>
<path d="M60.6941 30.2481L59.5253 29.5519L60.6941 28.8556C61.0274 28.6569 61.2294 28.2955 61.224 27.9074C61.2187 27.5194 61.0067 27.1637 60.6679 26.9744C60.3292 26.785 59.9151 26.7908 59.5818 26.9895L58.488 27.6412V26.2932C58.488 25.6933 58.0017 25.207 57.4018 25.207C56.8019 25.207 56.3156 25.6933 56.3156 26.2932V27.6401L55.2228 26.9884C54.7075 26.6813 54.0408 26.85 53.7337 27.3653C53.4265 27.8806 53.5953 28.5474 54.1106 28.8545L55.2793 29.5519L54.1106 30.2481C53.5953 30.5553 53.4265 31.222 53.7337 31.7373C54.0408 32.2526 54.7075 32.4214 55.2228 32.1142L56.3156 31.4625V32.8105C56.3156 33.4104 56.8019 33.8967 57.4018 33.8967C58.0017 33.8967 58.488 33.4104 58.488 32.8105V31.4636L59.5818 32.1153C59.9151 32.314 60.3292 32.3197 60.6679 32.1304C61.0067 31.9411 61.2187 31.5854 61.224 31.1974C61.2294 30.8093 61.0274 30.4479 60.6941 30.2492V30.2481Z" fill="#F0C419"/>
<path d="M24.8894 30.2481L23.7206 29.5519L24.8894 28.8556C25.4047 28.5484 25.5734 27.8817 25.2663 27.3664C24.9592 26.8511 24.2924 26.6823 23.7771 26.9895L22.6844 27.6412V26.2932C22.6844 25.6933 22.1981 25.207 21.5982 25.207C20.9983 25.207 20.512 25.6933 20.512 26.2932V27.6401L19.4182 26.9884C19.0848 26.7897 18.6708 26.784 18.332 26.9733C17.9933 27.1626 17.7813 27.5183 17.7759 27.9064C17.7705 28.2944 17.9725 28.6558 18.3059 28.8545L19.4746 29.5519L18.3059 30.2481C17.7906 30.5553 17.6218 31.222 17.929 31.7373C18.2361 32.2526 18.9029 32.4214 19.4182 32.1142L20.512 31.4625V32.8105C20.512 33.4104 20.9983 33.8967 21.5982 33.8967C22.1981 33.8967 22.6844 33.4104 22.6844 32.8105V31.4636L23.7771 32.1153C24.2924 32.4224 24.9592 32.2537 25.2663 31.7384C25.5734 31.2231 25.4047 30.5563 24.8894 30.2492V30.2481Z" fill="#F0C419"/>
<path d="M35.1552 48.0171C35.7551 48.0171 36.2414 47.5308 36.2414 46.9309C36.2414 46.331 35.7551 45.8447 35.1552 45.8447C34.5553 45.8447 34.069 46.331 34.069 46.9309C34.069 47.5308 34.5553 48.0171 35.1552 48.0171Z" fill="white"/>
</g>
<defs>
<clipPath id="clip0">
<rect width="80" height="80" fill="white"/>
</clipPath>
</defs>
</svg>
