<svg width="80" height="80" viewBox="0 0 80 80" fill="none" xmlns="http://www.w3.org/2000/svg">
<path d="M80 40C80 62.0917 62.0917 80 40 80C17.9083 80 0 62.0917 0 40C0 17.9083 17.9083 0 40 0C62.0917 0 80 17.9083 80 40Z" fill="url(#paint0_linear)"/>
<path d="M37.7099 62.2411H19.6014C19.0136 62.2411 18.4777 61.9683 18.1311 61.4934C17.785 61.0179 17.6892 60.4241 17.8692 59.8638C19.8919 53.5747 26.0632 49.1826 32.8766 49.1826C36.0455 49.1826 39.0881 50.1366 41.676 51.942C42.7374 52.6824 44.1986 52.4224 44.9395 51.3604C45.6799 50.299 45.4193 48.8378 44.3579 48.0974C43.1512 47.2557 41.8682 46.5587 40.5304 46.0063C42.3254 44.2473 43.5138 41.8737 43.753 39.229C46.6327 36.4568 50.3918 34.9382 54.4189 34.9382C57.5879 34.9382 60.6305 35.8928 63.2183 37.6976C64.2797 38.438 65.7409 38.178 66.4813 37.116C67.2216 36.0546 66.9616 34.5934 65.8996 33.853C64.693 33.0114 63.41 32.3143 62.0721 31.762C64.0881 29.7869 65.3418 27.0366 65.3418 23.9983C65.3418 18.0004 60.4626 13.1206 54.4647 13.1206C48.4668 13.1206 43.587 18.0004 43.587 23.9983C43.587 27.0183 44.8254 29.7545 46.82 31.7272C45.4358 32.2917 44.1174 33.0126 42.8845 33.8823C41.1999 30.0493 37.37 27.365 32.9223 27.365C26.9244 27.365 22.0446 32.2448 22.0446 38.2427C22.0446 41.2578 23.2788 43.9904 25.2679 45.9624C19.7259 48.1658 15.2527 52.6903 13.4069 58.4282C12.763 60.4308 13.1042 62.5542 14.3426 64.254C15.5816 65.9539 17.4981 66.9286 19.6014 66.9286H37.7093C39.0039 66.9286 40.0531 65.8794 40.0531 64.5848C40.0531 63.2909 39.0039 62.2411 37.7099 62.2411ZM54.4647 17.8081C57.8778 17.8081 60.6543 20.5846 60.6543 23.9977C60.6543 27.4108 57.8778 30.1879 54.4647 30.1879C51.0516 30.1879 48.2751 27.4108 48.2751 23.9977C48.2751 20.5846 51.0516 17.8081 54.4647 17.8081ZM32.9223 32.0525C36.3354 32.0525 39.1125 34.829 39.1125 38.2427C39.1125 41.6558 36.3354 44.4323 32.9223 44.4323C29.5092 44.4323 26.7328 41.6558 26.7328 38.2427C26.7328 34.829 29.5092 32.0525 32.9223 32.0525Z" fill="white"/>
<path d="M65.9235 47.1667C64.8712 46.4135 63.407 46.6559 62.6538 47.7087L52.4017 62.0282C52.1845 62.2741 51.9159 62.3272 51.7712 62.337C51.6199 62.3474 51.3269 62.3278 51.0779 62.091L44.436 55.7135C43.5022 54.8169 42.0191 54.8468 41.1224 55.7806C40.2258 56.7144 40.2557 58.1982 41.1896 59.0948L47.8388 65.4791C48.8837 66.4734 50.2777 67.0269 51.712 67.0269C51.8353 67.0269 51.9592 67.0227 52.0825 67.0141C53.6456 66.9104 55.1044 66.1505 56.0852 64.9292C56.1127 64.8956 56.1389 64.8608 56.1639 64.8254L66.4649 50.437C67.2186 49.3847 66.9763 47.9205 65.9235 47.1667Z" fill="white"/>
<defs>
<linearGradient id="paint0_linear" x1="0" y1="40" x2="80" y2="40" gradientUnits="userSpaceOnUse">
<stop stop-color="#00F1FF"/>
<stop offset="0.231" stop-color="#00D8FF"/>
<stop offset="0.5138" stop-color="#00C0FF"/>
<stop offset="0.7773" stop-color="#00B2FF"/>
<stop offset="1" stop-color="#00ADFF"/>
</linearGradient>
</defs>
</svg>
