<svg width="80" height="80" viewBox="0 0 80 80" fill="none" xmlns="http://www.w3.org/2000/svg">
<path d="M80 40C80 62.0917 62.0917 80 40 80C17.9083 80 0 62.0917 0 40C0 17.9083 17.9083 0 40 0C62.0917 0 80 17.9083 80 40Z" fill="#2864F0"/>
<path d="M45.6433 79.6021C65.0623 76.8591 80 60.1752 80 40C80 37.2339 79.7192 34.5331 79.1846 31.9244L60.5798 13.3203L53.3435 17.0154L42.3438 6.01562L37.6562 13.4375L52.6068 28.3881L49.0704 36.3422L28.4503 15.7214L25.1355 19.0363L47.03 40.9308L43.0231 49.9426L21.3226 28.2422L13.2391 32.9297L25.6433 45.3345L22.7344 51.1664L36.402 64.834L34.7015 68.6597L45.6433 79.6021Z" fill="#27488F"/>
<path d="M56.3611 31.048C56.3611 21.9318 48.9045 14.5563 39.7577 14.6888C30.915 14.8169 23.7189 22.0557 23.6396 30.8991C23.6078 34.4971 24.7376 37.8302 26.6767 40.5457C28.9728 43.7598 30.6153 47.3932 31.3752 51.269L33.0372 59.7468H46.9623L48.6249 51.269C49.3824 47.4054 51.0059 43.7745 53.3014 40.5756C55.2271 37.8925 56.3611 34.6027 56.3611 31.048Z" fill="#FFCE00"/>
<path d="M39.9335 14.6886V59.7466H46.9629L48.6249 51.2688C49.3823 47.4053 51.0059 43.7743 53.3014 40.5755C55.2271 37.8923 56.3611 34.6026 56.3611 31.0479C56.3611 21.9902 49.0002 14.6526 39.9335 14.6886Z" fill="#FDBA12"/>
<path d="M45.484 58.938L40.8215 58.4534L43.1805 35.7507H36.8195L39.1785 58.4534L34.516 58.938L31.6199 31.0632H48.3801L45.484 58.938Z" fill="#FF9500"/>
<path d="M39.9335 31.0632V35.7507H43.1805L40.8215 58.4534L45.484 58.938L48.3801 31.0632H39.9335Z" fill="#FE6A16"/>
<path d="M40 70.7819C35.7562 70.7819 32.3157 67.3413 32.3157 63.0975V56.0681H47.6837V63.0975C47.6837 67.3413 44.2438 70.7819 40 70.7819Z" fill="white"/>
<path d="M39.9335 56.0681V70.78C39.9561 70.78 39.9774 70.7819 40 70.7819C44.2438 70.7819 47.6837 67.3413 47.6837 63.0975V56.0687H39.9335V56.0681Z" fill="#E9EDF5"/>
<path d="M32.3157 57.3604H45.2985V59.7468H32.3157V57.3604Z" fill="#DCE1EB"/>
<path d="M34.7009 60.595H47.6837V62.9814H34.7009V60.595Z" fill="#DCE1EB"/>
<path d="M39.9335 57.3604H45.2985V59.7468H39.9335V57.3604Z" fill="#BEC3D2"/>
<path d="M39.9335 60.595H47.6837V62.9814H39.9335V60.595Z" fill="#BEC3D2"/>
<path d="M37.6556 6.01562H42.3431V13.4375H37.6556V6.01562Z" fill="#FFFF9C"/>
<path d="M39.9335 6.01562H42.3431V13.4375H39.9335V6.01562Z" fill="#FFF566"/>
<path d="M58.6774 28.2422H66.7609V32.9297H58.6774V28.2422Z" fill="#FFF566"/>
<path d="M13.2391 28.2422H21.3226V32.9297H13.2391V28.2422Z" fill="#FFFF9C"/>
<path d="M52.5491 15.722L58.265 10.0061L61.5792 13.3203L55.8633 19.0363L52.5491 15.722Z" fill="#FFF566"/>
<path d="M19.4196 47.851L25.1355 42.135L28.4497 45.4498L22.7338 51.1658L19.4196 47.851Z" fill="#FFFF9C"/>
<path d="M51.5491 45.451L54.8633 42.1362L60.5792 47.8522L57.265 51.167L51.5491 45.451Z" fill="#FFF566"/>
<path d="M19.4196 13.3204L22.7338 10.0056L28.4497 15.7216L25.1355 19.0364L19.4196 13.3204Z" fill="#FFFF9C"/>
</svg>
