<svg width="80" height="80" viewBox="0 0 80 80" fill="none" xmlns="http://www.w3.org/2000/svg">
<path d="M80 40C80 62.0917 62.0917 80 40 80C17.9083 80 0 62.0917 0 40C0 17.9083 17.9083 0 40 0C62.0917 0 80 17.9083 80 40Z" fill="#80DBFF"/>
<path d="M79.9902 40.7642L56.676 17.45L52.9871 19.9689L42.5183 9.49951L18.9343 33.0829L30.2686 44.4171L14.6552 60.6421L33.4821 79.4684C35.6036 79.8163 37.7802 80 40 80C61.8359 80 79.5825 62.5024 79.9902 40.7642Z" fill="#4AB8F7"/>
<path d="M52.7435 30.6312C52.7435 37.6698 47.038 43.3754 40 43.3754C32.962 43.3754 27.2565 37.6698 27.2565 30.6312C27.2565 23.5933 32.962 17.8877 40 17.8877C47.038 17.8877 52.7435 23.5933 52.7435 30.6312Z" fill="#4A7AFF"/>
<path d="M40 17.8877C39.9786 17.8877 39.9579 17.8895 39.9365 17.8895V43.3735C39.9579 43.3735 39.9786 43.3754 40 43.3754C47.038 43.3754 52.7435 37.6698 52.7435 30.6312C52.7435 23.5933 47.038 17.8877 40 17.8877Z" fill="#0053BF"/>
<path d="M68.891 52.3497C68.891 58.6827 63.7573 63.8164 57.4243 63.8164C51.0913 63.8164 45.9576 58.6827 45.9576 52.3497C45.9576 46.0167 51.0913 40.8831 57.4243 40.8831C63.7573 40.8831 68.891 46.0167 68.891 52.3497Z" fill="white"/>
<path d="M57.4243 40.8831C57.3926 40.8831 57.3608 40.8855 57.3291 40.8855V63.814C57.3608 63.8146 57.3926 63.817 57.4243 63.817C63.7573 63.817 68.891 58.6827 68.891 52.3497C68.891 46.0173 63.7573 40.8831 57.4243 40.8831Z" fill="#DCE1EB"/>
<path d="M62.4054 49.951C62.4054 52.7019 60.1752 54.9321 57.4243 54.9321C54.6735 54.9321 52.4432 52.7019 52.4432 49.951C52.4432 47.2002 54.6735 44.97 57.4243 44.97C60.1752 44.97 62.4054 47.2002 62.4054 49.951Z" fill="#FFBEAA"/>
<path d="M57.4243 44.97C57.3926 44.97 57.3608 44.9718 57.3291 44.9724V54.9297C57.3608 54.9303 57.3926 54.9315 57.4243 54.9315C60.1752 54.9315 62.4054 52.7019 62.4054 49.951C62.4054 47.2002 60.1752 44.97 57.4243 44.97Z" fill="#E09380"/>
<path d="M49.5044 60.642C51.5631 62.6085 54.3524 63.817 57.4243 63.817C60.4962 63.817 63.2861 62.6085 65.3442 60.642C64.0833 57.5029 61.0138 55.2861 57.4243 55.2861C53.8348 55.2861 50.7654 57.5029 49.5044 60.642Z" fill="#FF7045"/>
<path d="M65.3442 60.642C64.0833 57.5035 61.0138 55.2861 57.4243 55.2861C57.3926 55.2861 57.3608 55.2874 57.3291 55.288V63.8146C57.3608 63.8146 57.3926 63.817 57.4243 63.817C60.4962 63.817 63.2861 62.6085 65.3442 60.642Z" fill="#DE4726"/>
<path d="M34.0424 52.3497C34.0424 58.6827 28.9087 63.8164 22.5757 63.8164C16.2427 63.8164 11.109 58.6827 11.109 52.3497C11.109 46.0167 16.2427 40.8831 22.5757 40.8831C28.9087 40.8831 34.0424 46.0167 34.0424 52.3497Z" fill="white"/>
<path d="M22.5757 40.8831C22.5342 40.8831 22.4933 40.8861 22.4518 40.8861V63.8134C22.4933 63.814 22.5342 63.8164 22.5757 63.8164C28.9087 63.8164 34.0424 58.6827 34.0424 52.3497C34.0424 46.0173 28.9087 40.8831 22.5757 40.8831Z" fill="#DCE1EB"/>
<path d="M27.5568 49.951C27.5568 52.7019 25.3265 54.9321 22.5757 54.9321C19.8248 54.9321 17.5946 52.7019 17.5946 49.951C17.5946 47.2002 19.8248 44.97 22.5757 44.97C25.3265 44.97 27.5568 47.2002 27.5568 49.951Z" fill="#FFBEAA"/>
<path d="M22.5757 44.97C22.5342 44.97 22.4927 44.9724 22.4518 44.973V54.9291C22.4927 54.9297 22.5342 54.9321 22.5757 54.9321C25.3265 54.9321 27.5568 52.7019 27.5568 49.951C27.5568 47.2002 25.3265 44.97 22.5757 44.97Z" fill="#E09380"/>
<path d="M14.6558 60.642C16.7139 62.6085 19.5038 63.817 22.5757 63.817C25.6476 63.817 28.4375 62.6085 30.4956 60.642C29.2346 57.5029 26.1652 55.2861 22.5757 55.2861C18.9862 55.2861 15.9167 57.5029 14.6558 60.642Z" fill="#4A7AFF"/>
<path d="M30.4962 60.642C29.2346 57.5035 26.1652 55.2861 22.5757 55.2861C22.5342 55.2861 22.4933 55.288 22.4518 55.2886V63.8134C22.4933 63.814 22.5342 63.817 22.5757 63.817C25.6476 63.817 28.4375 62.6085 30.4962 60.642Z" fill="#0053BF"/>
<path d="M46.0968 27.5232C46.0968 24.1413 43.3435 21.4026 39.956 21.4264C36.5955 21.4502 33.8397 24.2823 33.9038 27.6422C33.9294 28.9661 34.3768 30.1868 35.1172 31.175C36.1877 32.6038 36.9739 34.2255 37.3798 35.9644L37.6709 37.2126H42.3291L42.6202 35.9644C43.0267 34.2231 43.8159 32.602 44.8865 31.1701C45.647 30.1526 46.0968 28.8904 46.0968 27.5232Z" fill="#FFCE00"/>
<path d="M39.9561 21.4264C39.95 21.4264 39.9432 21.427 39.9371 21.427V37.2126H42.3291L42.6208 35.9644C43.0267 34.2231 43.8165 32.602 44.8865 31.1701C45.647 30.1526 46.0974 28.8904 46.0974 27.5232C46.0968 24.1413 43.3435 21.4026 39.9561 21.4264Z" fill="#FFB600"/>
<path d="M41.5228 38.7115H38.4772L37.3633 27.1912H42.6367L41.5228 38.7115ZM39.281 28.9319L40 36.3702L40.719 28.9319H39.281Z" fill="#FEEC65"/>
<path d="M42.6367 27.1912H39.9365V28.9319H40.719L40 36.3702L39.9365 35.7153V38.7115H41.5228L42.6367 27.1912Z" fill="#FCD748"/>
<path d="M40.6 40.9364H39.4C38.4448 40.9364 37.6709 40.1619 37.6709 39.2073V37.2126H42.3291V39.2073C42.3291 40.1619 41.5552 40.9364 40.6 40.9364Z" fill="white"/>
<path d="M42.3291 37.2126H39.9365V40.9364H40.6C41.5552 40.9364 42.3291 40.1625 42.3291 39.2073V37.2126Z" fill="#DCE1EB"/>
<path d="M61.0657 33.0829V28.0469L57.1796 27.406C56.7279 24.9335 55.7556 22.6434 54.3799 20.6525L56.676 17.45L53.1152 13.8892L49.9127 16.1847C47.9218 14.8096 45.6311 13.8373 43.1586 13.385L42.5183 9.49951H37.4823L36.8414 13.385C34.3689 13.8373 32.0789 14.8096 30.0873 16.1847L26.8854 13.8892L23.324 17.45L25.6201 20.6525C24.245 22.6434 23.2721 24.9335 22.8204 27.406L18.9349 28.0469V33.0829L22.8204 33.7231C23.2721 36.1963 24.245 38.4863 25.6201 40.4773L23.324 43.6798L26.8854 47.2406L30.0873 44.9451C32.0789 46.3202 34.3689 47.2925 36.8414 47.7441L37.4823 51.6302H42.5183L43.1586 47.7441C45.6311 47.2925 47.9218 46.3202 49.9127 44.9451L53.1152 47.2406L56.676 43.6798L54.3799 40.4773C55.7556 38.4863 56.7279 36.1957 57.1796 33.7231L61.0657 33.0829ZM28.3691 30.5652C28.3691 24.1418 33.5767 18.9343 40 18.9343C46.4233 18.9343 51.6309 24.1412 51.6309 30.5652C51.6309 36.9885 46.4233 42.1954 40 42.1954C33.5767 42.1954 28.3691 36.9885 28.3691 30.5652Z" fill="#555A66"/>
<path d="M57.1796 27.406C56.7279 24.9335 55.7556 22.6434 54.3799 20.6525L56.676 17.45L53.1146 13.8885L49.9127 16.1847C47.9211 14.8096 45.6311 13.8367 43.1586 13.385L42.5183 9.49951H39.9365V18.9355C39.9579 18.9355 39.9786 18.9343 40 18.9343C46.4233 18.9343 51.6309 24.1412 51.6309 30.5652C51.6309 36.9885 46.4233 42.1954 40 42.1954C39.9786 42.1954 39.9579 42.1942 39.9365 42.1942V51.6302H42.5183L43.1586 47.7448C45.6311 47.2931 47.9211 46.3202 49.9127 44.9451L53.1146 47.2412L56.676 43.6798L54.3799 40.4779C55.755 38.4863 56.7279 36.1963 57.1796 33.7238L61.0651 33.0835V28.0469L57.1796 27.406Z" fill="#333940"/>
</svg>
