<svg width="80" height="80" viewBox="0 0 80 80" fill="none" xmlns="http://www.w3.org/2000/svg">
<g clip-path="url(#clip0)">
<path d="M79.8438 39.8438C79.8438 50.224 75.8893 59.682 69.4043 66.7908C67.9022 68.4381 66.2634 69.9597 64.5068 71.3379C61.5485 73.6578 58.255 75.5695 54.7107 76.9898C53.1256 77.6251 51.4911 78.1622 49.8126 78.5913C46.626 79.4092 43.2855 79.8438 39.8438 79.8438C36.4819 79.8438 33.2184 79.4293 30.1001 78.6469C28.4235 78.2288 26.7877 77.7033 25.202 77.0795C10.3534 71.2366 -0.15625 56.7676 -0.15625 39.8438C-0.15625 17.7521 17.7521 -0.15625 39.8438 -0.15625C61.9354 -0.15625 79.8438 17.7521 79.8438 39.8438Z" fill="#66CCB5"/>
<path d="M25.2021 62.1003H30.1002V78.647C28.4236 78.2289 26.7878 77.7034 25.2021 77.0796V62.1003Z" fill="#3B3B3B"/>
<path d="M21.6072 56.0576H33.6934V68.1432H21.6072V56.0576Z" fill="#4A4A4A"/>
<path d="M21.6072 56.0576H25.6996V68.1432H21.6072V56.0576Z" fill="#3B3B3B"/>
<path d="M20.9485 2.82288V23.6761H14.9902V2.82288C14.9902 1.17859 16.3251 -0.15625 17.9694 -0.15625C18.3167 -0.15625 18.6505 -0.0964356 18.9624 0.0146485C20.1184 0.421753 20.9485 1.52649 20.9485 2.82288Z" fill="#BABABA"/>
<path d="M40.3101 2.82288V23.6761H34.3542V2.82288C34.3542 1.17859 35.6866 -0.15625 37.3334 -0.15625C37.6813 -0.15625 38.0145 -0.0964356 38.3264 0.0128174C39.4824 0.421753 40.3101 1.52649 40.3101 2.82288Z" fill="#BABABA"/>
<path d="M20.9485 2.82288V23.6761H16.9763V2.82288C16.9763 1.52649 17.8064 0.421753 18.9624 0.0146484C20.1184 0.421753 20.9485 1.52649 20.9485 2.82288Z" fill="#CCCCCC"/>
<path d="M40.3101 2.82275V23.676H36.3385V2.82275C36.3385 1.52637 37.1686 0.421631 38.3264 0.0126953C39.4824 0.421631 40.3101 1.52637 40.3101 2.82275Z" fill="#CCCCCC"/>
<path d="M44.4813 22.4092V45.1912C44.4813 52.516 38.5426 58.4559 31.2184 58.4559H24.0846C16.7579 58.4559 10.8198 52.516 10.8198 45.1912V22.4092H44.4813Z" fill="#3B3B3B"/>
<path d="M44.4812 31.3008V45.1912C44.4812 52.516 38.5425 58.4559 31.2183 58.4559H28.8507C21.524 58.4559 15.5859 52.516 15.5859 45.1912V31.3008H44.4812Z" fill="#4A4A4A"/>
<path d="M48.6517 25.2394C48.6517 27.2969 46.9855 28.9631 44.928 28.9631H10.3729C9.34387 28.9631 8.41431 28.5463 7.73926 27.873C7.06604 27.1998 6.64917 26.2684 6.64917 25.2394C6.64917 23.1843 8.31726 21.5156 10.3729 21.5156H44.928C45.9564 21.5156 46.8878 21.9331 47.561 22.6063C48.2349 23.2814 48.6517 24.2109 48.6517 25.2394Z" fill="#3B3B3B"/>
<path d="M48.6517 25.2394C48.6517 27.2969 46.9855 28.9631 44.928 28.9631H20.899C19.87 28.9631 18.9404 28.5463 18.2654 27.873C17.5922 27.1998 17.1753 26.2684 17.1753 25.2394C17.1753 23.1843 18.8434 21.5156 20.899 21.5156H44.928C45.9564 21.5156 46.8878 21.9331 47.561 22.6063C48.2349 23.2814 48.6517 24.2109 48.6517 25.2394Z" fill="#4A4A4A"/>
<path d="M23.6481 34.2798H32.5415L27.3834 42.1057H32.1857L24.0192 54.1406L25.4266 44.5959H22.7588L23.6481 34.2798Z" fill="#FFD861"/>
<path d="M69.4043 39.1693V66.7908C67.9022 68.4381 66.2634 69.9597 64.5068 71.3379V39.1693C64.5068 36.4691 62.309 34.2731 59.6088 34.2731C56.908 34.2731 54.7107 36.4691 54.7107 39.1693V76.9897C53.1256 77.6251 51.4911 78.1622 49.8126 78.5913V39.1693C49.8126 33.7689 54.2059 29.375 59.6088 29.375C65.0098 29.375 69.4043 33.7689 69.4043 39.1693Z" fill="#3B3B3B"/>
</g>
<defs>
<clipPath id="clip0">
<rect width="80" height="80" fill="white"/>
</clipPath>
</defs>
</svg>
