<svg width="80" height="80" viewBox="0 0 80 80" fill="none" xmlns="http://www.w3.org/2000/svg">
<g clip-path="url(#clip0)">
<path d="M80 40C80 62.0917 62.0917 80 40 80C17.9083 80 0 62.0917 0 40C0 17.9083 17.9083 0 40 0C62.0917 0 80 17.9083 80 40Z" fill="#FC6930"/>
<path d="M62.5 42.1875H18.75C17.887 42.1875 17.1875 41.488 17.1875 40.625V12.5C17.1875 11.637 17.887 10.9375 18.75 10.9375H62.5C63.363 10.9375 64.0625 11.637 64.0625 12.5V40.625C64.0625 41.488 63.363 42.1875 62.5 42.1875Z" fill="#C7EEFD"/>
<path d="M68.75 18.75V54.6875C68.75 56.4136 67.3511 57.8125 65.625 57.8125H15.625C13.8989 57.8125 12.5 56.4136 12.5 54.6875V9.375C12.5 8.51196 13.1995 7.8125 14.0625 7.8125H33.0408C34.8157 7.8125 36.4392 8.81592 37.2333 10.4034L39.8438 15.625H65.625C67.3511 15.625 68.75 17.0239 68.75 18.75Z" fill="#FDBF43"/>
<path d="M20.3125 57.8125H15.625C13.8989 57.8125 12.5 56.4136 12.5 54.6875V9.375C12.5 8.51196 13.1995 7.8125 14.0625 7.8125H18.75C17.887 7.8125 17.1875 8.51196 17.1875 9.375V54.6875C17.1875 56.4136 18.5864 57.8125 20.3125 57.8125Z" fill="#FCB30B"/>
<path d="M65.625 67.1875H17.1875V45.3125H65.625V67.1875Z" fill="#98E5FB"/>
<path d="M76.5625 56.25C76.5625 62.2906 71.6656 67.1875 65.625 67.1875C59.5844 67.1875 54.6875 62.2906 54.6875 56.25C54.6875 50.2094 59.5844 45.3125 65.625 45.3125C71.6656 45.3125 76.5625 50.2094 76.5625 56.25Z" fill="#C7EEFD"/>
<path d="M65.625 48.4375C61.3104 48.4375 57.8125 51.9354 57.8125 56.25C57.8125 60.5646 61.3104 64.0625 65.625 64.0625C69.9396 64.0625 73.4375 60.5646 73.4375 56.25C73.4375 51.9354 69.9396 48.4375 65.625 48.4375ZM65.625 60.9375C63.0359 60.9375 60.9375 58.8391 60.9375 56.25C60.9375 53.6609 63.0359 51.5625 65.625 51.5625C68.2141 51.5625 70.3125 53.6609 70.3125 56.25C70.3125 58.8391 68.2141 60.9375 65.625 60.9375ZM67.1875 56.25C67.1875 57.113 66.488 57.8125 65.625 57.8125C64.762 57.8125 64.0625 57.113 64.0625 56.25C64.0625 55.387 64.762 54.6875 65.625 54.6875C66.488 54.6875 67.1875 55.387 67.1875 56.25Z" fill="#98E5FB"/>
<path d="M61.0223 57.619C61.5649 61.9623 64.6552 65.5127 68.75 66.7322C67.7594 67.027 66.7114 67.1875 65.625 67.1875H14.0625V56.25H59.4733C60.2612 56.25 60.9247 56.8372 61.0223 57.619Z" fill="#62DAFA"/>
<path d="M45.3125 56.2842V58.4033C45.3125 59.4293 44.6393 60.3339 43.6566 60.6293L40.2777 61.6425C39.2554 61.9495 38.4241 62.699 38.0164 63.6859C38.0121 63.6963 38.0078 63.7061 38.0042 63.7164C37.5934 64.7034 37.6495 65.8228 38.1561 66.7645L39.8285 69.87C40.3156 70.7739 40.1514 71.8896 39.4257 72.6147L37.9272 74.1132C37.2021 74.8389 36.0864 75.0031 35.1825 74.516L32.077 72.8436C31.1353 72.337 30.0159 72.2809 29.0289 72.6917C29.0186 72.6959 29.0088 72.6996 28.9984 72.7039C28.0115 73.1116 27.262 73.9429 26.955 74.9652L25.9418 78.3441C25.647 79.3268 24.7418 80 23.7158 80H21.5967C20.5707 80 19.6661 79.3268 19.3707 78.3441L18.3575 74.9652C18.0505 73.9429 17.301 73.1116 16.3141 72.7039C16.3037 72.6996 16.2939 72.6953 16.2836 72.6917C15.2966 72.2809 14.1772 72.337 13.2355 72.8436L10.13 74.516C9.22607 75.0031 8.11035 74.8389 7.38525 74.1132L5.88684 72.6147C5.16113 71.8896 4.99695 70.7739 5.48401 69.87L7.15637 66.7645C7.66296 65.8228 7.71912 64.7034 7.30835 63.7164C7.30408 63.7061 7.30042 63.6963 7.29614 63.6859C6.88843 62.699 6.05713 61.9495 5.03479 61.6425L1.65588 60.6293C0.673218 60.3339 0 59.4293 0 58.4033V56.2842C0 55.2582 0.673218 54.3536 1.65588 54.0582L5.03479 53.045C6.05713 52.738 6.88843 51.9885 7.29614 51.0016C7.30042 50.9912 7.30469 50.9814 7.30835 50.9711C7.71912 49.9841 7.66296 48.8647 7.15637 47.923L5.48401 44.8175C4.99695 43.9136 5.16113 42.7979 5.88684 42.0728L7.38525 40.5743C8.11035 39.8486 9.22607 39.6844 10.13 40.1715L13.2355 41.8439C14.1772 42.3505 15.2966 42.4066 16.2836 41.9958C16.2939 41.9916 16.3037 41.9879 16.3141 41.9836C17.301 41.5759 18.0505 40.7446 18.3575 39.7223L19.3707 36.3434C19.6655 35.3607 20.5707 34.6875 21.5967 34.6875H23.7158C24.7418 34.6875 25.6464 35.3607 25.9418 36.3434L26.955 39.7223C27.262 40.7446 28.0115 41.5759 28.9984 41.9836C29.0088 41.9879 29.0186 41.9922 29.0289 41.9958C30.0159 42.4066 31.1353 42.3505 32.077 41.8439L35.1825 40.1715C36.0864 39.6844 37.2021 39.8486 37.9272 40.5743L39.4257 42.0728C40.1514 42.7979 40.3156 43.9136 39.8285 44.8175L38.1561 47.923C37.6495 48.8647 37.5934 49.9841 38.0042 50.9711C38.0084 50.9814 38.0121 50.9912 38.0164 51.0016C38.4241 51.9885 39.2554 52.738 40.2777 53.045L43.6566 54.0582C44.6393 54.353 45.3125 55.2582 45.3125 56.2842Z" fill="#314DC8"/>
<path d="M35.7854 57.3436C35.7854 64.5946 29.9071 70.4729 22.6561 70.4729C15.4052 70.4729 9.52686 64.5946 9.52686 57.3436C9.52686 50.0927 15.4052 44.2144 22.6561 44.2144C29.9071 44.2144 35.7854 50.0927 35.7854 57.3436Z" fill="#172A7D"/>
<path d="M35.7855 57.3436C35.7855 63.8018 31.1224 69.1704 24.9799 70.2678C18.8373 69.1704 14.1748 63.8018 14.1748 57.3436C14.1748 50.8855 18.8373 45.5168 24.9799 44.4194C31.1224 45.5168 35.7855 50.8855 35.7855 57.3436Z" fill="#1F3595"/>
<path d="M28.8142 57.3439C28.8142 60.7448 26.0573 63.5017 22.6564 63.5017C19.2555 63.5017 16.4985 60.7448 16.4985 57.3439C16.4985 53.943 19.2555 51.186 22.6564 51.186C26.0573 51.186 28.8142 53.943 28.8142 57.3439Z" fill="#62DAFA"/>
<path d="M16.5972 56.2501C17.1135 53.3711 19.6288 51.186 22.6561 51.186C25.6835 51.186 28.1987 53.3711 28.7151 56.2501H16.5972Z" fill="#98E5FB"/>
</g>
<defs>
<clipPath id="clip0">
<rect width="80" height="80" fill="white"/>
</clipPath>
</defs>
</svg>
