<svg width="80" height="80" viewBox="0 0 80 80" fill="none" xmlns="http://www.w3.org/2000/svg">
<g clip-path="url(#clip0)">
<path d="M80 40C80 62.0917 62.0917 80 40 80C17.9083 80 0 62.0917 0 40C0 17.9083 17.9083 0 40 0C62.0917 0 80 17.9083 80 40Z" fill="#00ECCF"/>
<path d="M80 40.0001C80 37.6442 79.7943 35.3364 79.4037 33.0922L56.0107 9.69922L51.8048 7.62952L49.6258 12.0588L42.3437 5.44263H37.6562V15.6251L40.2539 18.1917H39.0625L28.1952 7.62952L23.9893 9.69922L28.4845 18.8356L30.2588 20.3651C25.1062 23.2692 21.626 28.7922 21.626 35.1283V56.8178H16.4124V67.3732L26.8115 77.7717C30.9412 79.214 35.3784 80.0001 40 80.0001C62.0917 80.0001 80 62.0918 80 40.0001Z" fill="#00CAB1"/>
<path d="M37.6562 5.44263H42.3438V15.6251H37.6562V5.44263Z" fill="#FFE767"/>
<path d="M40 5.44189H42.3438V15.625H40V5.44189Z" fill="#FFD000"/>
<path d="M23.99 9.6991L28.1965 7.62939L32.6918 16.7657L28.4858 18.8354L23.99 9.6991Z" fill="#FFE767"/>
<path d="M47.3108 16.7651L51.806 7.62817L56.012 9.69788L51.5167 18.8342L47.3108 16.7651Z" fill="#FFD000"/>
<path d="M58.374 57.9327H21.626V35.1282C21.626 25.7745 29.2084 18.1921 38.5626 18.1921H41.4374C50.7916 18.1921 58.374 25.7745 58.374 35.1282V57.9327Z" fill="#FF6339"/>
<path d="M58.3734 35.1282V57.9327H40V18.1921H41.4374C50.7922 18.1921 58.3734 25.7751 58.3734 35.1282Z" fill="#FF2E00"/>
<path d="M49.7858 57.9327H30.3705V44.4147C30.3705 39.8865 34.0411 36.2158 38.5693 36.2158H41.5869C46.1151 36.2158 49.7858 39.8865 49.7858 44.4147V57.9327Z" fill="#FF2100"/>
<path d="M49.7076 44.4141V57.9327H40V36.2158H41.5094C46.0376 36.2158 49.7076 39.8859 49.7076 44.4141Z" fill="#E30015"/>
<path d="M16.4124 56.8176H63.5876V67.373H16.4124V56.8176Z" fill="white"/>
<path d="M40 56.8171H63.5876V67.3738H40V56.8171Z" fill="#FFF5CA"/>
</g>
<defs>
<clipPath id="clip0">
<rect width="80" height="80" fill="white"/>
</clipPath>
</defs>
</svg>
