<svg width="14" height="17" viewBox="0 0 14 17" fill="none" xmlns="http://www.w3.org/2000/svg">
<path fill-rule="evenodd" clip-rule="evenodd" d="M11.9937 2.16659H11.2572V0.583252H9.78414V2.16659H3.89206V0.583252H2.41904V2.16659H1.68252C0.872363 2.16659 0.209503 2.87909 0.209503 3.74992V14.8333C0.209503 15.7041 0.872363 16.4166 1.68252 16.4166H11.9937C12.8038 16.4166 13.4667 15.7041 13.4667 14.8333V3.74992C13.4667 2.87909 12.8038 2.16659 11.9937 2.16659ZM11.9937 14.8333H1.68253V6.91658H11.9937V14.8333ZM1.68253 3.74992V5.33325H11.9937V3.74992H1.68253ZM3.15554 8.49992H10.5206V10.0833H3.15554V8.49992ZM8.31111 11.6666H3.15554V13.2499H8.31111V11.6666Z" fill="white"/>
</svg>
