<svg width="80" height="80" viewBox="0 0 80 80" fill="none" xmlns="http://www.w3.org/2000/svg">
<g opacity="0.8">
<path d="M40 80C62.0914 80 80 62.0914 80 40C80 17.9086 62.0914 0 40 0C17.9086 0 0 17.9086 0 40C0 62.0914 17.9086 80 40 80Z" fill="url(#paint0_linear)"/>
<path d="M19.4455 23.4558L15.7961 17.1892L18.6396 14.3459L24.9061 17.9953L26.106 22.3041L26.0996 22.3105L46.7565 42.9672L44.4163 45.3074L23.7596 24.6506L23.7544 24.6558L19.4455 23.4558Z" fill="url(#paint1_linear)"/>
<path d="M44.3109 49.4341L50.8844 42.8605L48.1456 40.1216L41.572 46.6952L44.3109 49.4341Z" fill="url(#paint2_linear)"/>
<path d="M62.2589 63.6174L65.0676 60.8087C66.9498 58.9265 66.9498 55.8463 65.0676 53.9641L52.2808 41.1772L42.6273 50.8307L55.4142 63.6176C57.2965 65.4997 60.3765 65.4997 62.2589 63.6174Z" fill="url(#paint3_linear)"/>
<path d="M28.0689 53.9086L49.2133 32.7642C52.3853 33.7811 56.0002 33.0332 58.5178 30.5157C61.1894 27.8442 61.8695 23.9365 60.561 20.6342L55.6016 25.5936L50.7645 25.2814L50.4524 20.4442L55.4117 15.4848C52.1094 14.1762 48.2017 14.8564 45.5302 17.5279C43.0127 20.0454 42.2649 23.6604 43.2817 26.8325L22.1374 47.977C19.8577 47.5743 17.4231 48.25 15.6656 50.0075C12.8058 52.8673 12.8058 57.5207 15.6656 60.3806C18.5255 63.2404 23.1788 63.2404 26.0388 60.3806C27.7961 58.6228 28.4717 56.1882 28.0689 53.9086ZM17.6405 58.4054C15.8697 56.6347 15.8697 53.7532 17.6406 51.9823C19.4114 50.2115 22.2928 50.2115 24.0638 51.9823C25.8347 53.7532 25.8347 56.6347 24.0638 58.4054C22.2927 60.1764 19.4113 60.1764 17.6405 58.4054Z" fill="url(#paint4_linear)"/>
</g>
<defs>
<linearGradient id="paint0_linear" x1="68.2843" y1="68.2843" x2="11.7157" y2="11.7157" gradientUnits="userSpaceOnUse">
<stop stop-color="#E67500"/>
<stop offset="1" stop-color="#FFC473"/>
</linearGradient>
<linearGradient id="paint1_linear" x1="32.0312" y1="29.3233" x2="26.2421" y2="35.1124" gradientUnits="userSpaceOnUse">
<stop stop-color="#CFFFFB"/>
<stop offset="1" stop-color="#00CEB4"/>
</linearGradient>
<linearGradient id="paint2_linear" x1="40.4516" y1="50.5546" x2="54.2031" y2="36.803" gradientUnits="userSpaceOnUse">
<stop stop-color="#FFEC98"/>
<stop offset="1" stop-color="#FFD400"/>
</linearGradient>
<linearGradient id="paint3_linear" x1="49.7812" y1="59.886" x2="63.5327" y2="46.1344" gradientUnits="userSpaceOnUse">
<stop stop-color="#451152"/>
<stop offset="1" stop-color="#CA80DE"/>
</linearGradient>
<linearGradient id="paint4_linear" x1="33.0733" y1="35.4673" x2="43.1795" y2="45.5736" gradientUnits="userSpaceOnUse">
<stop stop-color="white"/>
<stop offset="1" stop-color="#FFEC98"/>
</linearGradient>
</defs>
</svg>
